HIERARCHY
ROOT root
{
	OFFSET	0	13.1	24.9
	CHANNELS 6  Xposition Yposition Zposition Xrotation Yrotation Zrotation
	JOINT spine_1
	{
		OFFSET	0	9.99999	0
		CHANNELS 3  Xrotation Yrotation Zrotation
		JOINT spine_2
		{
			OFFSET	0	112	-10
			CHANNELS 3  Xrotation Yrotation Zrotation
			JOINT spine_3
			{
				OFFSET	0	206.5	19.3
				CHANNELS 3  Xrotation Yrotation Zrotation
				JOINT spine_4
				{
					OFFSET	0	110.4	14.6
					CHANNELS 3  Xrotation Yrotation Zrotation
					JOINT neck_1
					{
						OFFSET	0	71.8	-50.3
						CHANNELS 3  Xrotation Yrotation Zrotation
						JOINT neck_2
						{
							OFFSET	0	86.2	-25.8
							CHANNELS 3  Xrotation Yrotation Zrotation
							JOINT head_ee
							{
								OFFSET	0	179.8	-8.7
								CHANNELS 3  Xrotation Yrotation Zrotation
								End Site
								{
									OFFSET	1	0	0
								}
							}
						}
					}
					JOINT left_clavicle
					{
						OFFSET	-43.2	22.4	-70.8
						CHANNELS 3  Xrotation Yrotation Zrotation
						JOINT left_shoulder
						{
							OFFSET	-93.9	-5.79999	48.7
							CHANNELS 3  Xrotation Yrotation Zrotation
							JOINT left_elbow
							{
								OFFSET	-291.4	-30.8	15.2
								CHANNELS 3  Xrotation Yrotation Zrotation
								JOINT left_lowarm_twist
								{
									OFFSET	-110.7	-3.89999	13.6
									CHANNELS 3  Xrotation Yrotation Zrotation
									JOINT left_hand
									{
										OFFSET	-110.7	-3.89999	13.6
										CHANNELS 3  Xrotation Yrotation Zrotation
										JOINT left_ee
										{
											OFFSET	-80.8	-5.10001	12.1
											CHANNELS 3  Xrotation Yrotation Zrotation
											End Site
											{
												OFFSET	1	0	0
											}
										}
									}
								}
							}
						}
					}
					JOINT right_clavicle
					{
						OFFSET	43.2	22.4	-70.8
						CHANNELS 3  Xrotation Yrotation Zrotation
						JOINT right_shoulder
						{
							OFFSET	93.9	-5.79999	48.7
							CHANNELS 3  Xrotation Yrotation Zrotation
							JOINT right_elbow
							{
								OFFSET	291.4	-30.8	15.2
								CHANNELS 3  Xrotation Yrotation Zrotation
								JOINT right_lowarm_twist
								{
									OFFSET	110.7	-3.89999	13.6
									CHANNELS 3  Xrotation Yrotation Zrotation
									JOINT right_hand
									{
										OFFSET	110.7	-3.89999	13.6
										CHANNELS 3  Xrotation Yrotation Zrotation
										JOINT right_ee
										{
											OFFSET	80.8	-5.10001	12.1
											CHANNELS 3  Xrotation Yrotation Zrotation
											End Site
											{
												OFFSET	1	0	0
											}
										}
									}
								}
							}
						}
					}
				}
			}
		}
	}
	JOINT left_hip
	{
		OFFSET	-82.8	-127.5	0.300001
		CHANNELS 3  Xrotation Yrotation Zrotation
		JOINT left_knee
		{
			OFFSET	-28.2	-396.7	2.2
			CHANNELS 3  Xrotation Yrotation Zrotation
			JOINT left_ankle
			{
				OFFSET	-11.7	-411.3	35.4
				CHANNELS 3  Xrotation Yrotation Zrotation
				JOINT left_toes
				{
					OFFSET	0	-60	-88.6
					CHANNELS 3  Xrotation Yrotation Zrotation
					JOINT left_foot_ee
					{
						OFFSET	-22.5	-16.5	-42.2
						CHANNELS 3  Xrotation Yrotation Zrotation
						End Site
						{
							OFFSET	1	0	0
						}
					}
				}
			}
		}
	}
	JOINT right_hip
	{
		OFFSET	82.8	-127.5	0.300001
		CHANNELS 3  Xrotation Yrotation Zrotation
		JOINT right_knee
		{
			OFFSET	28.2	-396.7	2.2
			CHANNELS 3  Xrotation Yrotation Zrotation
			JOINT right_ankle
			{
				OFFSET	11.7	-411.3	35.4
				CHANNELS 3  Xrotation Yrotation Zrotation
				JOINT right_toes
				{
					OFFSET	0	-60	-88.6
					CHANNELS 3  Xrotation Yrotation Zrotation
					JOINT right_foot_ee
					{
						OFFSET	22.5	-16.5	-42.2
						CHANNELS 3  Xrotation Yrotation Zrotation
						End Site
						{
							OFFSET	1	0	0
						}
					}
				}
			}
		}
	}
}
MOTION
Frames: 6
Frame Time: 0.02
3015.93 717.978 -761.069 -28.4592 72.5399 20.6873 2.16016 0.449534 1.53546 2.16141 0.35093 1.56095 2.17097 0.075676 1.59811 2.16755 0.327087 1.56612 -3.01029 3.88931 -0.386916 -2.98581 7.36947 0.161435 -0.0 0.0 -0.0 6.77496 -4.14444 13.0974 -21.0552 -15.5384 67.3479 0.253882 -7.16839 0.0159026 -0.935082 -0.0338842 0.114606 -0.772297 -17.1722 -12.5411 -0.0 0.0 -0.0 9.98739 2.18635 -19.7204 -8.82573 27.3823 -52.1028 1.20267 30.784 -0.331102 0.0074411 -0.000262182 0.000914149 -1.65051 0.802353 11.4597 0.0 0.0 0.0 28.372 -13.5637 6.07503 -48.7671 -1.1165 7.17878 -1.64458 27.9314 0.256208 38.6062 -0.0 -0.0 -0.0 0.0 -0.0 22.5466 3.74064 4.53192 -28.5063 -0.0983723 -4.32865 12.0957 -9.7142 1.70746 25.0023 -0.0 -0.0 0.0 0.0 0.0 
3000.96 719.911 -766.332 -29.854 72.1048 22.1089 2.41942 0.308491 1.40392 2.42049 0.21854 1.4207 2.42579 -0.0241125 1.43721 2.42296 0.203147 1.42298 -3.97382 4.79724 -0.706806 -3.9418 9.30962 0.0312744 -0.0 0.0 -0.0 6.4005 -5.41822 12.2988 -24.955 -13.1227 69.1127 0.393802 -11.0387 0.0380533 0.068576 0.00241127 -0.00842606 -0.70456 -16.3678 -11.7426 -0.0 0.0 -0.0 10.1948 6.44011 -20.2606 -10.2383 29.0086 -49.312 1.25518 31.8711 -0.358403 -1.29031 0.0472466 -0.157999 -1.63571 3.23852 12.4665 0.0 0.0 0.0 30.0505 -11.3613 5.28277 -49.3244 -1.16384 7.25035 -1.54857 27.7231 0.240897 38.2393 -0.0 -0.0 -0.0 0.0 -0.0 20.2212 9.91977 3.04187 -26.3123 -0.167558 -3.99905 11.3867 -12.5211 1.61608 24.0304 -0.0 -0.0 0.0 0.0 0.0 
2983.2 722.152 -771.989 -32.6203 73.8106 24.7531 2.60915 0.343724 1.31792 2.61008 0.259172 1.33712 2.61599 0.0345644 1.36156 2.61349 0.249144 1.33902 -3.89622 4.56008 -0.0394867 -3.87304 8.3617 0.676325 -0.0 0.0 -0.0 5.58853 -4.56107 10.6713 -23.0827 -12.3715 71.3518 0.232961 -6.58308 0.013398 0.345172 0.0120341 -0.0424407 -1.01878 -15.3681 -13.4772 -0.0 0.0 -0.0 10.2683 6.35711 -20.4184 -11.0119 28.7456 -46.5125 1.24673 31.6978 -0.35395 -0.873183 0.0315832 -0.107037 -1.24587 5.01381 10.5807 0.0 0.0 0.0 32.7703 -11.2643 6.05361 -50.6054 -1.2753 7.41311 -2.49394 27.3793 0.387873 38.8277 -0.0 -0.0 -0.0 0.0 -0.0 14.3113 10.5029 2.70729 -18.039 -0.313824 -2.73905 5.92258 -13.2203 0.856384 21.4369 -0.0 -0.0 0.0 0.0 0.0 
2962.08 717.933 -788.619 -29.2453 73.2232 21.739 2.59227 0.266389 1.35185 2.59327 0.179836 1.36606 2.59738 -0.0489355 1.37698 2.59478 0.169125 1.36743 -3.35506 5.07294 1.05394 -3.32865 8.42366 1.85134 -0.0 0.0 -0.0 4.45417 -2.80113 8.46969 -27.3751 -11.8263 73.5958 0.294204 -8.29211 0.0213265 -0.246239 -0.00874092 0.0302324 -0.719402 -17.4399 -12.2917 -0.0 0.0 -0.0 11.2934 6.14239 -22.6458 -7.59959 29.968 -45.132 1.23334 31.422 -0.346943 -3.84305 0.151157 -0.467303 -1.60461 2.29115 11.8236 0.0 0.0 0.0 41.5731 -8.25551 3.83217 -53.0872 -1.50154 7.72127 -4.20237 27.5625 0.656357 39.9445 -0.0 -0.0 -0.0 0.0 -0.0 10.3144 -0.0137174 2.14737 -11.8972 -0.304185 -1.7972 17.8733 -12.7366 2.47476 21.2259 -0.0 -0.0 0.0 0.0 0.0 
2947.35 719.925 -798.955 -28.4409 72.0757 20.9841 2.60114 0.458022 1.34223 2.60206 0.371693 1.36865 2.61083 0.140232 1.41126 2.60824 0.361333 1.37142 -2.81195 4.78702 2.00371 -2.78538 7.12331 2.76876 -0.0 0.0 -0.0 3.67114 -2.16301 6.95426 -29.7864 -11.3231 75.745 0.301943 -8.50706 0.0224569 0.516024 0.0178955 -0.0634741 -0.9128 -17.5167 -13.6453 -0.0 0.0 -0.0 12.0013 7.59664 -24.2491 -8.61147 29.9741 -42.9164 1.15094 29.6883 -0.305051 -5.05337 0.205225 -0.612289 -1.35424 4.64619 11.1615 0.0 0.0 0.0 47.3127 -5.73558 2.61257 -54.9953 -1.68449 7.95147 -7.27949 26.99 1.13883 37.8648 -0.0 -0.0 -0.0 0.0 -0.0 6.20108 0.0654662 1.42497 -4.87581 -0.16982 -0.728797 14.3217 -11.6863 2.00855 17.6056 -0.0 -0.0 0.0 0.0 0.0 
2928.2 716.179 -806.003 -28.1466 71.8391 22.0042 2.68824 0.166835 1.06514 2.68887 0.0987229 1.0736 2.69059 -0.078743 1.07525 2.68899 0.0920509 1.07419 -4.50864 5.44422 -0.459868 -4.47766 10.3308 0.431974 -0.0 0.0 -0.0 3.77862 0.0819655 7.29164 -32.7428 -11.7491 76.3408 0.285211 -8.042 0.020049 0.511447 0.0177396 -0.0629103 -0.777634 -16.3336 -12.2274 -0.0 0.0 -0.0 11.3512 7.69216 -22.8041 -7.66663 32.0373 -43.3418 1.26256 32.0219 -0.362308 -7.28053 0.312687 -0.876012 -1.47984 5.15357 12.2515 0.0 0.0 0.0 50.3896 -7.10878 3.04988 -54.5515 -1.64125 7.89846 -8.57736 26.1587 1.33809 37.0818 -0.0 -0.0 -0.0 0.0 -0.0 5.42796 -2.83058 1.08331 -6.05234 -0.201457 -0.90658 22.1665 -7.36141 2.99572 17.368 -0.0 -0.0 0.0 0.0 0.0 
